<mxfile host="app.diagrams.net" modified="2023-09-18T16:45:10.493Z" agent="Mozilla/5.0 (Windows NT 10.0; Win64; x64) AppleWebKit/537.36 (KHTML, like Gecko) Chrome/116.0.0.0 Safari/537.36" version="21.7.5" etag="JOWsFbkj9uwQSWeJ7WxY" type="github">
  <diagram name="Page-1" id="jOIPRwWELmmRzQSQ_--s">
    <mxGraphModel>
      <root>
        <mxCell id="0" />
        <mxCell id="1" parent="0" />
      </root>
    </mxGraphModel>
  </diagram>
</mxfile>
